<mxfile host="app.diagrams.net" modified="2023-09-26T11:51:37.298Z" agent="Mozilla/5.0 (Windows NT 10.0; Win64; x64) AppleWebKit/537.36 (KHTML, like Gecko) Chrome/117.0.0.0 Safari/537.36" etag="1hrPHkQIFYs112qfn4Fo" version="21.8.0" type="device">
  <diagram name="Seite-1" id="EnxyYloKm8_8eJI8a7mj">
    <mxGraphModel dx="1434" dy="790" grid="1" gridSize="10" guides="1" tooltips="1" connect="1" arrows="1" fold="1" page="1" pageScale="1" pageWidth="827" pageHeight="1169" math="0" shadow="0">
      <root>
        <mxCell id="0" />
        <mxCell id="1" parent="0" />
        <mxCell id="O1lDCOp7wuetr-kvjGg0-28" value="&lt;font style=&quot;font-size: 18px;&quot;&gt;Client&lt;/font&gt;" style="html=1;dropTarget=0;whiteSpace=wrap;" vertex="1" parent="1">
          <mxGeometry x="130" y="20" width="490" height="320" as="geometry" />
        </mxCell>
        <mxCell id="O1lDCOp7wuetr-kvjGg0-29" value="" style="shape=module;jettyWidth=8;jettyHeight=4;" vertex="1" parent="O1lDCOp7wuetr-kvjGg0-28">
          <mxGeometry x="1" width="20" height="20" relative="1" as="geometry">
            <mxPoint x="-27" y="7" as="offset" />
          </mxGeometry>
        </mxCell>
        <mxCell id="O1lDCOp7wuetr-kvjGg0-34" value="&lt;p style=&quot;margin:0px;margin-top:6px;text-align:center;&quot;&gt;&lt;b&gt;Anmelden&lt;/b&gt;&lt;/p&gt;" style="align=left;overflow=fill;html=1;dropTarget=0;whiteSpace=wrap;" vertex="1" parent="1">
          <mxGeometry x="150" y="250" width="120" height="70" as="geometry" />
        </mxCell>
        <mxCell id="O1lDCOp7wuetr-kvjGg0-35" value="" style="shape=component;jettyWidth=8;jettyHeight=4;" vertex="1" parent="O1lDCOp7wuetr-kvjGg0-34">
          <mxGeometry x="1" width="20" height="20" relative="1" as="geometry">
            <mxPoint x="-24" y="4" as="offset" />
          </mxGeometry>
        </mxCell>
        <mxCell id="O1lDCOp7wuetr-kvjGg0-36" value="&lt;p style=&quot;margin:0px;margin-top:6px;text-align:center;&quot;&gt;&lt;b&gt;Kontaktformular&lt;/b&gt;&lt;/p&gt;&lt;p style=&quot;margin:0px;margin-top:6px;text-align:center;&quot;&gt;&lt;b&gt;DSGVO&lt;/b&gt;&lt;/p&gt;" style="align=left;overflow=fill;html=1;dropTarget=0;whiteSpace=wrap;" vertex="1" parent="1">
          <mxGeometry x="480" y="250" width="120" height="70" as="geometry" />
        </mxCell>
        <mxCell id="O1lDCOp7wuetr-kvjGg0-37" value="" style="shape=component;jettyWidth=8;jettyHeight=4;" vertex="1" parent="O1lDCOp7wuetr-kvjGg0-36">
          <mxGeometry x="1" width="20" height="20" relative="1" as="geometry">
            <mxPoint x="-24" y="4" as="offset" />
          </mxGeometry>
        </mxCell>
        <mxCell id="O1lDCOp7wuetr-kvjGg0-38" value="&lt;p style=&quot;margin:0px;margin-top:6px;text-align:center;&quot;&gt;&lt;b&gt;Registrieren&lt;/b&gt;&lt;/p&gt;" style="align=left;overflow=fill;html=1;dropTarget=0;whiteSpace=wrap;" vertex="1" parent="1">
          <mxGeometry x="310" y="250" width="120" height="70" as="geometry" />
        </mxCell>
        <mxCell id="O1lDCOp7wuetr-kvjGg0-39" value="" style="shape=component;jettyWidth=8;jettyHeight=4;" vertex="1" parent="O1lDCOp7wuetr-kvjGg0-38">
          <mxGeometry x="1" width="20" height="20" relative="1" as="geometry">
            <mxPoint x="-24" y="4" as="offset" />
          </mxGeometry>
        </mxCell>
        <mxCell id="O1lDCOp7wuetr-kvjGg0-40" value="&lt;font style=&quot;font-size: 18px;&quot;&gt;Datenbankmanagement&lt;/font&gt;" style="html=1;dropTarget=0;whiteSpace=wrap;" vertex="1" parent="1">
          <mxGeometry x="125" y="830" width="490" height="320" as="geometry" />
        </mxCell>
        <mxCell id="O1lDCOp7wuetr-kvjGg0-41" value="" style="shape=module;jettyWidth=8;jettyHeight=4;" vertex="1" parent="O1lDCOp7wuetr-kvjGg0-40">
          <mxGeometry x="1" width="20" height="20" relative="1" as="geometry">
            <mxPoint x="-27" y="7" as="offset" />
          </mxGeometry>
        </mxCell>
        <mxCell id="O1lDCOp7wuetr-kvjGg0-42" value="&lt;p style=&quot;margin:0px;margin-top:6px;text-align:center;&quot;&gt;&lt;b&gt;Datenspeicher&amp;nbsp;&lt;/b&gt;&lt;/p&gt;" style="align=left;overflow=fill;html=1;dropTarget=0;whiteSpace=wrap;" vertex="1" parent="1">
          <mxGeometry x="160" y="1070" width="150" height="50" as="geometry" />
        </mxCell>
        <mxCell id="O1lDCOp7wuetr-kvjGg0-43" value="" style="shape=component;jettyWidth=8;jettyHeight=4;" vertex="1" parent="O1lDCOp7wuetr-kvjGg0-42">
          <mxGeometry x="1" width="20" height="20" relative="1" as="geometry">
            <mxPoint x="-24" y="4" as="offset" />
          </mxGeometry>
        </mxCell>
        <mxCell id="O1lDCOp7wuetr-kvjGg0-44" value="&lt;font style=&quot;font-size: 18px;&quot;&gt;Service&lt;/font&gt;" style="html=1;dropTarget=0;whiteSpace=wrap;" vertex="1" parent="1">
          <mxGeometry x="130" y="430" width="490" height="320" as="geometry" />
        </mxCell>
        <mxCell id="O1lDCOp7wuetr-kvjGg0-45" value="" style="shape=module;jettyWidth=8;jettyHeight=4;" vertex="1" parent="O1lDCOp7wuetr-kvjGg0-44">
          <mxGeometry x="1" width="20" height="20" relative="1" as="geometry">
            <mxPoint x="-27" y="7" as="offset" />
          </mxGeometry>
        </mxCell>
        <mxCell id="O1lDCOp7wuetr-kvjGg0-49" value="" style="ellipse;whiteSpace=wrap;html=1;align=center;aspect=fixed;fillColor=none;strokeColor=none;resizable=0;perimeter=centerPerimeter;rotatable=0;allowArrows=0;points=[];outlineConnect=1;" vertex="1" parent="1">
          <mxGeometry x="404" y="470" width="10" height="10" as="geometry" />
        </mxCell>
        <mxCell id="O1lDCOp7wuetr-kvjGg0-52" value="" style="ellipse;whiteSpace=wrap;html=1;align=center;aspect=fixed;fillColor=none;strokeColor=none;resizable=0;perimeter=centerPerimeter;rotatable=0;allowArrows=0;points=[];outlineConnect=1;" vertex="1" parent="1">
          <mxGeometry x="330" y="390" width="10" height="10" as="geometry" />
        </mxCell>
        <mxCell id="O1lDCOp7wuetr-kvjGg0-56" value="" style="ellipse;whiteSpace=wrap;html=1;align=center;aspect=fixed;fillColor=none;strokeColor=none;resizable=0;perimeter=centerPerimeter;rotatable=0;allowArrows=0;points=[];outlineConnect=1;" vertex="1" parent="1">
          <mxGeometry x="370" y="780" width="10" height="10" as="geometry" />
        </mxCell>
        <mxCell id="O1lDCOp7wuetr-kvjGg0-59" value="" style="ellipse;whiteSpace=wrap;html=1;align=center;aspect=fixed;fillColor=none;strokeColor=none;resizable=0;perimeter=centerPerimeter;rotatable=0;allowArrows=0;points=[];outlineConnect=1;" vertex="1" parent="1">
          <mxGeometry x="380" y="810" width="10" height="10" as="geometry" />
        </mxCell>
        <mxCell id="O1lDCOp7wuetr-kvjGg0-60" value="&lt;p style=&quot;margin:0px;margin-top:6px;text-align:center;&quot;&gt;&lt;b&gt;SQL-Schnittstelle&lt;/b&gt;&lt;/p&gt;" style="align=left;overflow=fill;html=1;dropTarget=0;whiteSpace=wrap;" vertex="1" parent="1">
          <mxGeometry x="400" y="1070" width="160" height="50" as="geometry" />
        </mxCell>
        <mxCell id="O1lDCOp7wuetr-kvjGg0-61" value="" style="shape=component;jettyWidth=8;jettyHeight=4;" vertex="1" parent="O1lDCOp7wuetr-kvjGg0-60">
          <mxGeometry x="1" width="20" height="20" relative="1" as="geometry">
            <mxPoint x="-24" y="4" as="offset" />
          </mxGeometry>
        </mxCell>
      </root>
    </mxGraphModel>
  </diagram>
</mxfile>
